<svg width="72" height="72" viewBox="0 0 72 72" fill="none" xmlns="http://www.w3.org/2000/svg">
<path d="M23 59V68M23 49V51M15 49V51M31 49V51M56 47V49M48 47V49M56 37V39M48 37V39M56 57V59M48 57V59M23 39V41M15 39V41M31 39V41M23 29V31M15 29V31M31 29V31M23 19V21M15 19V21M31 19V21M10.5 5H35.5C36.6935 5 37.8381 5.47411 38.682 6.31802C39.5259 7.16193 40 8.30653 40 9.5V67.4375C40 67.5867 39.9407 67.7298 39.8352 67.8352C39.7298 67.9407 39.5867 68 39.4375 68H6V9.5C6 8.30653 6.47411 7.16193 7.31802 6.31802C8.16193 5.47411 9.30653 5 10.5 5ZM42.25 27.5H60.5C61.6935 27.5 62.8381 27.9741 63.682 28.818C64.5259 29.6619 65 30.8065 65 32V68H40V29.75C40 29.1533 40.2371 28.581 40.659 28.159C41.081 27.7371 41.6533 27.5 42.25 27.5Z" stroke="white" stroke-width="4.5" stroke-linecap="round" stroke-linejoin="round"/>
</svg>
